<?xml version="1.0" encoding="utf-8"?>
<!-- Generator: Adobe Illustrator 16.0.4, SVG Export Plug-In . SVG Version: 6.00 Build 0)  -->
<!DOCTYPE svg PUBLIC "-//W3C//DTD SVG 1.1//EN" "http://www.w3.org/Graphics/SVG/1.1/DTD/svg11.dtd">
<svg version="1.1" id="Layer_1" xmlns="http://www.w3.org/2000/svg" xmlns:xlink="http://www.w3.org/1999/xlink" x="0px" y="0px"
	 width="100px" height="100px" viewBox="0 0 100 100" enable-background="new 0 0 100 100" xml:space="preserve">
<path d="M20.006,31.422c-0.091-0.014-0.168,0.012-0.232,0.078c-0.35,0.465-0.596,0.97-0.647,1.487c0,0.13,0.077,0.246,0.22,0.272
	l1.204,0.167l0.22-0.039l0.439-1.694l-0.389-0.22L20.006,31.422z M78.133,36.971c0.143,0,0.233-0.104,0.259-0.234
	c0.039-0.517-0.116-1.047-0.388-1.564c-0.052-0.078-0.116-0.116-0.207-0.13l-0.815-0.077l-0.362,0.13v1.72l0.298,0.117
	L78.133,36.971z M46.572,25.809l0.312,0.53c0.232,0.401,1.021,1.164,2.146,1.746c2.324-1.843,4.65,1.987,2.483,4.087
	c-0.09,0.557-0.258,1.126-0.465,1.604v0.156l2.483,0.232c-0.002-0.014-0.518-6.57-0.518-6.57h-0.014
	c-0.136-1.546-1.083-2.583-2.522-3.13c-1.991-0.75-4.268-0.181-5.781,1.307c-0.362,0.362-0.543,0.802-0.646,1.164
	c0.388-0.026,0.97-0.323,1.682-0.686L46.572,25.809z M46.664,33.918v0.104l3.737-0.09v-0.298c0.208-0.439,0.414-1.099,0.518-1.785
	c2.029-1.623-0.097-4.973-1.771-2.988c-1.436-0.66-2.497-1.643-2.82-2.199c-1.061,0.543-1.772,0.945-2.366,0.932
	c-0.272,0.595-0.428,1.242-0.428,1.939C43.533,31.565,44.84,33.285,46.664,33.918z M32.048,36.854l10.606,1.94
	c-0.091,5.148,0.854,11.137,1.189,13.063l11.137-1.332c-0.775-0.879-2.069-2.005-2.107-5.187c-0.053-3.932,2.237-6.92,2.237-6.92
	l9.843,0.531c0.375,0.025,0.737,0,1.087-0.078l9.933-2.095v-1.591l-10.528,0.75c-27.919-2.638-3.773-0.381-32.944-1.682L21.817,31.9
	l-0.376,1.448l9.805,3.286C31.505,36.725,31.776,36.802,32.048,36.854z M79.364,71.49c-12.809-10.196-7.984-6.322-22.662-18.206
	c-0.259-1.553-1.282-2.16-1.282-2.16l-11.465,1.37l-0.419,0.855l-10.539,1.773c-2.01,0.337-3.625,1.84-4.112,3.818l-3.611,14.417
	l-1.986,1.09c-0.241,0.132-0.394,0.385-0.394,0.661c0,0.419,0.338,0.757,0.757,0.757h3.175v-2.508l6.55-13.084l17.031-1.424
	c16.078,8.584,10.166,5.673,27.719,13.573l-0.929,2.066c-0.115,0.251-0.082,0.544,0.084,0.765c0.252,0.336,0.725,0.401,1.06,0.148
	l2.534-1.911L79.364,71.49z M22.328,72.727c-0.043,0.023-0.074,0.061-0.116,0.086C17.143,66.647,14.069,58.784,14,50.24
	c-0.046-5.694,1.251-11.088,3.591-15.894c0.343,0.448,0.853,0.778,1.479,0.894l1.204,0.167c0.091,0.013,0.184,0.019,0.275,0.019
	c0.117,0,0.234-0.01,0.351-0.031c0,0,0.228-0.041,0.232-0.042l1.231,0.413c-2.245,4.333-3.509,9.254-3.484,14.473
	c0.031,6.574,2.141,12.68,5.691,17.705l-1.025,4.097L22.328,72.727z M75.268,75.603C68.583,82.273,59.686,85.921,50.24,86H50
	c-8.583,0-16.469-3.036-22.66-8.081c0.899-0.254,1.66-1.123,1.66-2.053v-2.035l0.289-0.685C34.805,78.084,42.072,81,50,81h0.16
	c8.313,0,16.147-3.256,21.986-9.166c0.997,0.445,2.093,1.036,3.335,1.594l-0.103,0.228C75.093,74.278,75.073,74.969,75.268,75.603z
	 M20.946,29.478c0,0-0.228-0.014-0.464-0.029C26.974,20.199,37.737,14.098,50,14c19.76,0,35.84,16.08,36,35.76
	c0.06,7.135-2.006,13.959-5.827,19.817l-3.778-3.007C79.522,61.604,81.2,55.85,81.2,49.84c-0.036-3.897-0.8-7.627-2.151-11.068
	c0.659-0.292,1.157-0.888,1.306-1.652c0.015-0.077,0.025-0.154,0.031-0.231c0.065-0.859-0.141-1.75-0.611-2.645
	c-0.032-0.062-0.068-0.122-0.106-0.179c-0.361-0.542-0.917-0.896-1.563-0.997c-0.039-0.006-0.079-0.011-0.119-0.015l-0.815-0.077
	c-0.062-0.006-0.126-0.009-0.188-0.009c-0.229,0-0.458,0.04-0.675,0.117l-0.162,0.059C70.562,24.579,60.892,18.88,49.84,18.88
	c-9.813,0.091-18.527,4.692-24.191,11.817c-1.922-0.423-3.485-0.767-3.498-0.769l-0.346-0.196
	C21.541,29.584,21.248,29.497,20.946,29.478z"/>
</svg>
