<?xml version="1.0" encoding="utf-8"?>
<!-- Generator: Adobe Illustrator 16.0.4, SVG Export Plug-In . SVG Version: 6.00 Build 0)  -->
<!DOCTYPE svg PUBLIC "-//W3C//DTD SVG 1.1//EN" "http://www.w3.org/Graphics/SVG/1.1/DTD/svg11.dtd">
<svg version="1.1" id="Layer_1" xmlns="http://www.w3.org/2000/svg" xmlns:xlink="http://www.w3.org/1999/xlink" x="0px" y="0px"
	 width="100px" height="100px" viewBox="0 0 100 100" enable-background="new 0 0 100 100" xml:space="preserve">
<path d="M41.565,45.644c-1.021,0-1.852,0.831-1.852,1.852c0,1.027,0.831,1.864,1.852,1.864c1.028,0,1.864-0.837,1.864-1.864
	C43.43,46.475,42.594,45.644,41.565,45.644z M41.565,41.681c-3.206,0-5.813,2.608-5.813,5.814c0,3.213,2.607,5.827,5.813,5.827
	c3.214,0,5.828-2.614,5.828-5.827C47.394,44.289,44.779,41.681,41.565,41.681z M41.565,50.58c-1.693,0-3.072-1.384-3.072-3.085
	c0-1.694,1.379-3.073,3.072-3.073c1.701,0,3.086,1.379,3.086,3.073C44.651,49.196,43.267,50.58,41.565,50.58z M64.756,32.621
	c0.204,0.269,0.147,0.651-0.121,0.855c-0.294,0.209-0.66,0.138-0.856-0.122l-2.874-3.852c-0.195-0.269-0.146-0.651,0.13-0.855
	c0.27-0.204,0.652-0.147,0.855,0.122L64.756,32.621z M68.104,29.136v3.852c0,0.334-0.276,0.61-0.61,0.61
	c-0.343,0-0.612-0.276-0.612-0.61v-3.852c0-0.334,0.27-0.611,0.612-0.611C67.827,28.524,68.104,28.801,68.104,29.136z
	 M74.072,29.502l-2.875,3.852c-0.176,0.251-0.555,0.336-0.854,0.122c-0.27-0.204-0.326-0.586-0.122-0.855l2.875-3.851
	c0.203-0.269,0.578-0.326,0.854-0.123C74.22,28.851,74.275,29.233,74.072,29.502z M75.245,37.059h-5.448
	c-0.333,0-0.61,0.276-0.61,0.611v0.936h-3.168v-1.914c0-0.333-0.277-0.611-0.61-0.611H41.173c-3.144,0-6.075,1.254-8.258,3.543
	c-1.481,1.559-2.467,3.448-2.901,5.495c-0.622-0.641-1.489-1.042-2.45-1.042c-1.885,0-3.42,1.534-3.42,3.42
	c0,1.885,1.535,3.419,3.42,3.419c0.903,0,1.72-0.357,2.331-0.931l-4.562,17.762c-0.23,0.898-0.037,1.837,0.532,2.572
	c0.571,0.735,1.432,1.156,2.361,1.156c1.647,0,2.987-1.339,2.987-2.986V53.04c1.898,3.381,5.463,5.721,9.537,5.869
	c0.146,0.007,0.285,0.007,0.423,0.007c3.273,0,6.369-1.384,8.543-3.843c1.596-1.809,3.2-3.177,4.886-4.195l0.366-0.22
	c2.98-1.791,6.401-2.735,9.878-2.735h10.399c0.333,0,0.611-0.277,0.611-0.611V37.67C75.856,37.335,75.578,37.059,75.245,37.059z
	 M27.563,49.694c-1.211,0-2.198-0.985-2.198-2.198s0.987-2.198,2.198-2.198c1.2,0,2.175,0.968,2.194,2.163
	c0,0.016-0.002,0.031-0.002,0.047c0,0.012,0.002,0.023,0.002,0.035C29.731,48.733,28.759,49.694,27.563,49.694z M29.992,68.489
	c0,0.973-0.792,1.765-1.767,1.765c-0.55,0-1.059-0.248-1.395-0.684c-0.338-0.435-0.452-0.988-0.315-1.52l3.477-13.533V68.489z
	 M41.565,54.543c-3.879,0-7.035-3.161-7.035-7.048c0-3.879,3.156-7.036,7.035-7.036c3.888,0,7.049,3.157,7.049,7.036
	C48.614,51.382,45.453,54.543,41.565,54.543z M50,14c-20.08,0.16-36.16,16.4-36,36.24C14.16,69.92,30.24,86,50,86h0.24
	c9.6-0.08,18.64-3.84,25.359-10.721C82.32,68.4,86.08,59.359,86,49.76C85.84,30.08,69.76,14,50,14z M72.16,71.819
	C66.32,77.739,58.48,81,50.16,81H50c-7.898,0-15.14-2.894-20.648-7.8c-0.395,0.103-0.802,0.226-1.232,0.226
	c-1.552,0-2.936-0.679-3.887-1.905c-0.953-1.229-1.249-2.781-0.864-4.283l0.206-0.792c-2.946-4.722-4.666-10.273-4.694-16.208
	c-0.08-17.2,13.76-31.199,30.96-31.359c8.411,0,16.02,3.305,21.64,8.655c0.5-0.634,1.282-1.009,2.077-1.009
	c0.561,0,1.111,0.177,1.565,0.511c1.17,0.888,1.404,2.527,0.539,3.672l-0.627,0.834c3.82,5.134,6.102,11.413,6.166,18.248
	C81.2,58.109,78,65.899,72.16,71.819z"/>
</svg>
