<?xml version="1.0" encoding="utf-8"?>
<!-- Generator: Adobe Illustrator 16.0.4, SVG Export Plug-In . SVG Version: 6.00 Build 0)  -->
<!DOCTYPE svg PUBLIC "-//W3C//DTD SVG 1.1//EN" "http://www.w3.org/Graphics/SVG/1.1/DTD/svg11.dtd">
<svg version="1.1" id="Layer_1" xmlns="http://www.w3.org/2000/svg" xmlns:xlink="http://www.w3.org/1999/xlink" x="0px" y="0px"
	 width="100px" height="100px" viewBox="0 0 100 100" enable-background="new 0 0 100 100" xml:space="preserve">
<path d="M60.626,35.221v-3.382c0-2.125-1.739-3.864-3.865-3.864H43.238c-2.125,0-3.864,1.739-3.864,3.864v3.382H60.626z
	 M39.374,40.63c0,0.29,0.097,0.483,0.29,0.676c3.284,3.284,3.284,8.694,0,11.978c-0.193,0.192-0.29,0.482-0.29,0.677v8.982h21.252
	v-8.982c0-0.291-0.097-0.484-0.29-0.677c-3.284-3.284-3.284-8.694,0-11.978c0.193-0.193,0.29-0.483,0.29-0.676v-3.477H39.374V40.63z
	 M52.125,41.79l-3.09,4.153h3.864c0.386,0,0.772,0.193,0.868,0.58c0.194,0.386,0.097,0.772-0.193,1.062l-7.148,4.637l4.154-4.346
	h-3.478c-0.386,0-0.676-0.194-0.869-0.484c-0.193-0.29-0.096-0.675,0.097-0.965L52.125,41.79z M39.374,64.875v11.786
	c0,2.608,2.125,4.733,4.733,4.733h11.689c2.607,0,4.732-2.126,4.732-4.733V64.875H39.374z M55.216,25.562v0.579H44.88v-2.608
	c0-0.58,0.387-0.966,0.967-0.966h1.352v-2.995c0-0.483,0.483-0.967,0.966-0.967h3.768c0.483,0,0.967,0.483,0.967,0.967v3.091
	C54.153,22.953,55.216,24.112,55.216,25.562z M50,14c-20.08,0.16-36.16,16.4-36,36.24C14.16,69.92,30.24,86,50,86h0.24
	c9.6-0.08,18.64-3.84,25.359-10.721C82.32,68.4,86.08,59.359,86,49.76C85.84,30.08,69.76,14,50,14z M72.16,71.92
	c-2.76,2.797-5.969,4.997-9.462,6.556C61.782,81.199,58.868,83,55.796,83H44.107c-3.08,0-5.934-1.811-6.82-4.547
	C26.516,73.586,18.938,62.759,18.88,50.24c-0.072-15.565,11.255-28.508,26.155-30.947C45.213,17.88,46.682,17,48.164,17h3.768
	c1.486,0,2.874,0.884,3.036,2.303C69.793,21.735,81.056,34.523,81.2,49.84C81.2,58.16,78,66,72.16,71.92z"/>
</svg>
