<?xml version="1.0" encoding="utf-8"?>
<!-- Generator: Adobe Illustrator 16.0.4, SVG Export Plug-In . SVG Version: 6.00 Build 0)  -->
<!DOCTYPE svg PUBLIC "-//W3C//DTD SVG 1.1//EN" "http://www.w3.org/Graphics/SVG/1.1/DTD/svg11.dtd">
<svg version="1.1" id="Layer_1" xmlns="http://www.w3.org/2000/svg" xmlns:xlink="http://www.w3.org/1999/xlink" x="0px" y="0px"
	 width="100px" height="100px" viewBox="0 0 100 100" enable-background="new 0 0 100 100" xml:space="preserve">
<path fill="#C1272D" d="M79.501,24H20.495C16.15,24,13,27.903,13,32.249V75.52c0,4.346,3.15,7.48,7.495,7.48h44.572
	c0.709,4-0.6,8.953-3.948,12.302C68.309,95.302,74.232,90,75.145,83h4.356C83.847,83,87,79.865,87,75.52V32.249
	C87,27.903,83.847,24,79.501,24z M65,33h7v10.483C72,46.983,71.272,53,69.907,62h-2.729C65.812,53,65,46.992,65,43.511V33z M28,33h7
	v10.483C35,46.983,34.293,53,32.928,62h-2.73C28.834,53,28,46.992,28,43.511V33z M34.805,71.147c-0.83,0.84-1.841,1.26-3.032,1.26
	c-1.188,0-2.203-0.42-3.043-1.26s-1.259-1.854-1.259-3.045c0-1.19,0.419-2.204,1.259-3.045c0.84-0.839,1.854-1.259,3.043-1.259
	c1.191,0,2.202,0.42,3.032,1.259c0.831,0.841,1.248,1.854,1.248,3.045C36.053,69.294,35.636,70.308,34.805,71.147z M52.181,71.147
	c-0.832,0.84-1.843,1.26-3.032,1.26c-1.191,0-2.206-0.42-3.046-1.26c-0.841-0.84-1.259-1.854-1.259-3.045
	c0-1.19,0.418-2.204,1.259-3.045c0.84-0.839,1.854-1.259,3.046-1.259c1.189,0,2.2,0.42,3.032,1.259
	c0.829,0.841,1.246,1.854,1.246,3.045C53.427,69.294,53.01,70.308,52.181,71.147z M58.845,45.911
	c-0.69,1.234-1.906,2.683-3.646,4.345c-1.741,1.662-2.873,3.044-3.399,4.146c-0.525,1.103-0.788,2.193-0.788,3.506
	c0,0.281,0.123,0.092,0.367,2.092h-5.012c-0.034-1-0.197-0.455-0.486-1.223c-0.289-0.771-0.434-1.389-0.434-1.965
	c0-1.103,0.154-2.132,0.462-3.147c0.304-1.015,0.754-1.95,1.351-2.833c0.595-0.885,1.771-2.29,3.529-4.234
	c1.758-1.941,2.639-3.538,2.639-4.798c0-2.45-1.601-3.673-4.804-3.673c-1.557,0-3.185,0.779-4.883,2.337l-2.702-5.066
	c2.256-1.768,5.222-2.65,8.897-2.65c2.835,0,5.201,0.788,7.099,2.362c1.899,1.576,2.849,3.667,2.849,6.273
	C59.883,43.168,59.538,44.678,58.845,45.911z M71.783,71.147c-0.829,0.84-1.84,1.26-3.031,1.26c-1.188,0-2.203-0.42-3.044-1.26
	c-0.839-0.84-1.259-1.854-1.259-3.045c0-1.19,0.42-2.204,1.259-3.045c0.841-0.839,1.855-1.259,3.044-1.259
	c1.191,0,2.202,0.42,3.031,1.259c0.832,0.841,1.248,1.854,1.248,3.045C73.031,69.294,72.615,70.308,71.783,71.147z"/>
<g>
	<path fill="#C1272D" d="M37.527,18.846v-5.967h-5.271v5.967h-2.351V5.6h2.351v5.19h5.271V5.6h2.323v13.246H37.527z"/>
	<path fill="#C1272D" d="M42.608,18.846V5.6h2.351v13.246H42.608z"/>
	<path fill="#C1272D" d="M57.5,6.676l-0.985,1.89c-0.277-0.247-0.705-0.493-1.284-0.737c-0.578-0.244-1.076-0.366-1.491-0.366
		c-1.303,0-2.33,0.441-3.084,1.325c-0.753,0.883-1.13,2.066-1.13,3.549c0,1.41,0.369,2.538,1.108,3.381
		c0.737,0.844,1.743,1.266,3.015,1.266c0.838,0,1.528-0.229,2.07-0.688v-2.604h-1.835v-2.007h4.186v5.932
		c-0.561,0.458-1.282,0.815-2.165,1.071c-0.884,0.256-1.762,0.384-2.636,0.384c-1.898,0-3.404-0.623-4.516-1.867
		c-1.113-1.245-1.669-2.889-1.669-4.932s0.606-3.704,1.817-4.982c1.212-1.278,2.843-1.917,4.892-1.917
		C55.246,5.375,56.481,5.808,57.5,6.676z"/>
	<path fill="#C1272D" d="M67.771,18.846v-5.967H62.5v5.967h-2.351V5.6H62.5v5.19h5.271V5.6h2.323v13.246H67.771z"/>
</g>
</svg>
