<?xml version="1.0" encoding="utf-8"?>
<!-- Generator: Adobe Illustrator 16.0.4, SVG Export Plug-In . SVG Version: 6.00 Build 0)  -->
<!DOCTYPE svg PUBLIC "-//W3C//DTD SVG 1.1//EN" "http://www.w3.org/Graphics/SVG/1.1/DTD/svg11.dtd">
<svg version="1.1" id="Layer_1" xmlns="http://www.w3.org/2000/svg" xmlns:xlink="http://www.w3.org/1999/xlink" x="0px" y="0px"
	 width="100px" height="100px" viewBox="0 0 100 100" enable-background="new 0 0 100 100" xml:space="preserve">
<path fill="#006837" d="M79.389,23H20.383C16.038,23,13,27.122,13,31.466v43.272C13,79.084,16.038,83,20.383,83h44.573
	c0.708,3-0.599,8.953-3.949,12.303C68.196,95.303,74.12,89,75.032,83h4.356C83.734,83,87,79.084,87,74.738V31.466
	C87,27.122,83.734,23,79.389,23z M39.493,71.244c-0.77,0.777-1.698,1.168-2.783,1.168c-1.084,0-2.013-0.391-2.782-1.168
	c-0.77-0.779-1.155-1.711-1.155-2.795c0-1.086,0.385-2.014,1.155-2.783c0.77-0.77,1.698-1.154,2.782-1.154
	c1.085,0,2.013,0.385,2.783,1.154c0.77,0.77,1.154,1.697,1.154,2.783C40.647,69.533,40.263,70.465,39.493,71.244z M52.668,71.244
	c-0.77,0.777-1.697,1.168-2.782,1.168c-1.085,0-2.012-0.391-2.782-1.168c-0.77-0.779-1.155-1.711-1.155-2.795
	c0-1.086,0.385-2.014,1.155-2.783s1.697-1.154,2.782-1.154c1.084,0,2.012,0.385,2.782,1.154c0.77,0.77,1.155,1.697,1.155,2.783
	C53.823,69.533,53.438,70.465,52.668,71.244z M65.844,71.244c-0.77,0.777-1.697,1.168-2.782,1.168c-1.084,0-2.012-0.391-2.782-1.168
	c-0.77-0.779-1.155-1.711-1.155-2.795c0-1.086,0.385-2.014,1.155-2.783c0.771-0.77,1.698-1.154,2.782-1.154
	c1.085,0,2.012,0.385,2.782,1.154s1.155,1.697,1.155,2.783C66.999,69.533,66.614,70.465,65.844,71.244z"/>
<g>
	<path fill="#006837" d="M30.891,18.846V5.6h2.351v11.158h5.985v2.088H30.891z"/>
	<path fill="#006837" d="M40.493,12.11c0-1.887,0.517-3.482,1.55-4.788s2.416-1.958,4.146-1.958c1.905,0,3.361,0.591,4.367,1.772
		c1.007,1.182,1.51,2.839,1.51,4.973s-0.526,3.828-1.578,5.081c-1.052,1.254-2.545,1.881-4.48,1.881
		c-1.778,0-3.142-0.621-4.091-1.863S40.493,14.268,40.493,12.11z M42.934,12.11c0,1.549,0.262,2.749,0.787,3.599
		c0.524,0.85,1.287,1.275,2.288,1.275c1.175,0,2.072-0.416,2.69-1.248c0.618-0.832,0.927-2.041,0.927-3.625
		c0-3.104-1.146-4.657-3.436-4.657c-1.049,0-1.854,0.421-2.414,1.262S42.934,10.688,42.934,12.11z"/>
	<path fill="#006837" d="M64.824,19.027h-0.967l-2.894-8.354l-2.812,8.354h-0.968L52.834,5.6h2.451l2.486,7.993L60.457,5.6h1.031
		l2.695,7.993L66.659,5.6h2.45L64.824,19.027z"/>
</g>
</svg>
