<?xml version="1.0" encoding="utf-8"?>
<!-- Generator: Adobe Illustrator 16.0.4, SVG Export Plug-In . SVG Version: 6.00 Build 0)  -->
<!DOCTYPE svg PUBLIC "-//W3C//DTD SVG 1.1//EN" "http://www.w3.org/Graphics/SVG/1.1/DTD/svg11.dtd">
<svg version="1.1" id="Layer_1" xmlns="http://www.w3.org/2000/svg" xmlns:xlink="http://www.w3.org/1999/xlink" x="0px" y="0px"
	 width="100px" height="100px" viewBox="0 0 100 100" enable-background="new 0 0 100 100" xml:space="preserve">
<path fill="#F15A24" d="M78.851,23H19.846C15.501,23,12,27.261,12,31.606v43.271C12,79.223,15.501,82,19.846,82h44.572
	c0.707,5-0.599,8.952-3.949,12.301C67.658,94.301,73.581,90,74.494,82h4.356C83.195,82,87,79.223,87,74.877V31.606
	C87,27.261,83.195,23,78.851,23z M31.657,72.17c-0.77,0.778-1.697,1.168-2.782,1.168c-1.084,0-2.013-0.39-2.782-1.168
	c-0.77-0.778-1.154-1.711-1.154-2.795c0-1.085,0.384-2.013,1.154-2.782c0.77-0.771,1.698-1.154,2.782-1.154
	c1.085,0,2.013,0.384,2.782,1.154c0.77,0.77,1.155,1.697,1.155,2.782C32.812,70.459,32.427,71.392,31.657,72.17z M44.833,72.17
	c-0.77,0.778-1.697,1.168-2.782,1.168s-2.012-0.39-2.781-1.168c-0.771-0.778-1.156-1.711-1.156-2.795
	c0-1.085,0.386-2.013,1.156-2.782c0.77-0.771,1.696-1.154,2.781-1.154s2.013,0.384,2.782,1.154c0.77,0.77,1.154,1.697,1.154,2.782
	C45.987,70.459,45.603,71.392,44.833,72.17z M58.007,72.17c-0.769,0.778-1.695,1.168-2.78,1.168s-2.014-0.39-2.783-1.168
	c-0.771-0.778-1.154-1.711-1.154-2.795c0-1.085,0.384-2.013,1.154-2.782c0.77-0.771,1.698-1.154,2.783-1.154s2.012,0.384,2.78,1.154
	c0.771,0.77,1.156,1.697,1.156,2.782C59.163,70.459,58.778,71.392,58.007,72.17z M66,34h7v10.415C73,47.914,72.759,54,71.395,63
	h-2.729C67.3,54,66,47.923,66,44.441V34z M73.271,72.078c-0.831,0.84-1.842,1.26-3.03,1.26c-1.191,0-2.206-0.42-3.046-1.26
	s-1.259-1.854-1.259-3.045c0-1.19,0.419-2.204,1.259-3.045c0.84-0.839,1.854-1.259,3.046-1.259c1.188,0,2.199,0.42,3.03,1.259
	c0.832,0.841,1.246,1.854,1.246,3.045C74.517,70.225,74.103,71.238,73.271,72.078z"/>
<g>
	<path fill="#F15A24" d="M29.796,18.855h-2.278l-1.375-7.143l-2.667,7.314h-0.841l-2.667-7.314l-1.429,7.143h-2.269L18.938,5.6
		h1.248l2.866,8.924L25.854,5.6h1.239L29.796,18.855z"/>
	<path fill="#F15A24" d="M33.594,7.689v3.101h4.376v1.999h-4.376v3.969h6.003v2.088h-8.354V5.6h8.454v2.089H33.594z"/>
	<path fill="#F15A24" d="M44.715,18.846h-2.938V5.609c1.875-0.066,3.053-0.1,3.535-0.1c1.93,0,3.459,0.565,4.589,1.695
		c1.13,1.13,1.695,2.63,1.695,4.499C51.596,16.465,49.302,18.846,44.715,18.846z M44.127,7.662v9.042
		c0.379,0.036,0.79,0.054,1.23,0.054c1.188,0,2.117-0.431,2.789-1.293c0.672-0.862,1.008-2.068,1.008-3.617
		c0-2.833-1.316-4.25-3.951-4.25C44.95,7.599,44.592,7.62,44.127,7.662z"/>
	<path fill="#F15A24" d="M53.721,18.846V5.6h2.351v13.246H53.721z"/>
	<path fill="#F15A24" d="M58.829,5.6h2.351v8.979c0,0.711,0.217,1.29,0.651,1.736c0.434,0.446,1.03,0.669,1.79,0.669
		c0.85,0,1.511-0.219,1.984-0.656c0.473-0.437,0.71-1.035,0.71-1.795V5.6h2.351v9.114c0,1.362-0.457,2.429-1.369,3.201
		c-0.914,0.771-2.133,1.157-3.657,1.157c-1.537,0-2.724-0.377-3.558-1.13c-0.836-0.753-1.253-1.832-1.253-3.237V5.6z"/>
	<path fill="#F15A24" d="M83.729,18.855h-2.278l-1.374-7.143l-2.668,7.314h-0.841l-2.667-7.314l-1.429,7.143h-2.27L72.87,5.6h1.248
		l2.866,8.924L79.787,5.6h1.239L83.729,18.855z"/>
</g>
</svg>
