<?xml version="1.0" encoding="utf-8"?>
<!-- Generator: Adobe Illustrator 16.0.4, SVG Export Plug-In . SVG Version: 6.00 Build 0)  -->
<!DOCTYPE svg PUBLIC "-//W3C//DTD SVG 1.1//EN" "http://www.w3.org/Graphics/SVG/1.1/DTD/svg11.dtd">
<svg version="1.1" id="Layer_1" xmlns="http://www.w3.org/2000/svg" xmlns:xlink="http://www.w3.org/1999/xlink" x="0px" y="0px"
	 width="100px" height="100px" viewBox="0 0 100 100" enable-background="new 0 0 100 100" xml:space="preserve">
<path d="M50,14c-20.08,0.16-36.16,16.4-36,36.24C14.16,69.92,30.24,86,50,86h0.24c9.6-0.08,18.64-3.84,25.359-10.721
	C82.32,68.4,86.08,59.359,86,49.76C85.84,30.08,69.76,14,50,14z M72.16,71.92c-5.84,5.92-13.68,9.2-22,9.28H50
	c-17.04,0-31.04-13.921-31.12-30.96c-0.08-17.2,13.76-31.2,30.96-31.36c17.28,0,31.2,13.92,31.36,30.96
	C81.2,58.16,78,66,72.16,71.92z M75.65,47.152v-2.74c0-1.565-1.27-2.84-2.839-2.84c-1.076,0-2.056,0.59-2.545,1.57v-5.486
	c0-1.564-1.271-2.84-2.84-2.84c-1.27,0-2.445,0.883-2.74,2.054v-4.794c0-1.565-1.27-2.84-2.84-2.84c-1.564,0-2.84,1.275-2.84,2.84
	v14.98H40.795V32.176c0-1.569-1.27-2.839-2.835-2.839c-1.57,0-2.84,1.27-2.84,2.839v4.406c-0.49-0.979-1.47-1.666-2.545-1.666
	c-1.57,0-2.84,1.271-2.84,2.841v5.58c-0.49-0.98-1.47-1.666-2.545-1.666c-1.57,0-2.84,1.271-2.84,2.84v2.74
	c-1.37,0.195-2.35,1.37-2.35,2.84s1.075,2.54,2.35,2.841v2.74c0,1.569,1.27,2.839,2.84,2.839c1.175,0,2.155-0.689,2.545-1.67v5.58
	c0,1.569,1.27,2.841,2.84,2.841c1.175,0,2.15-0.681,2.545-1.66v4.41c0,1.56,1.27,2.829,2.84,2.829c1.565,0,2.835-1.27,2.835-2.829
	V52.832h18.209v14.98c0,1.569,1.276,2.84,2.84,2.84c1.57,0,2.84-1.271,2.84-2.84v-4.8c0.295,1.179,1.47,2.06,2.74,2.06
	c1.569,0,2.84-1.271,2.84-2.84v-5.391c0.489,0.891,1.469,1.57,2.545,1.57c1.569,0,2.839-1.271,2.839-2.84v-2.74
	c1.37-0.2,2.35-1.37,2.35-2.84C78,48.527,77.02,47.447,75.65,47.152z"/>
</svg>
