<?xml version="1.0" encoding="utf-8"?>
<!-- Generator: Adobe Illustrator 16.0.4, SVG Export Plug-In . SVG Version: 6.00 Build 0)  -->
<!DOCTYPE svg PUBLIC "-//W3C//DTD SVG 1.1//EN" "http://www.w3.org/Graphics/SVG/1.1/DTD/svg11.dtd">
<svg version="1.1" id="Layer_1" xmlns="http://www.w3.org/2000/svg" xmlns:xlink="http://www.w3.org/1999/xlink" x="0px" y="0px"
	 width="2300px" height="500px" viewBox="0 0 2300 500" enable-background="new 0 0 2300 500" xml:space="preserve">
<path fill="#FFFFFF" d="M393.216,128.178l-84.978,276.736h-11.74l-65.038-188.218l-60.751,188.218h-11.74L72.874,128.178h38.761
	l54.788,190.64l60.006-190.64h13.044l59.261,190.267l55.72-190.267H393.216z M795.741,275.584l79.2,125.603h-42.675L759.402,283.97
	c-8.324,0-21.494-0.618-39.507-1.863v119.08h-37.271V128.178c1.366,0,11.025-0.466,28.978-1.398
	c17.952-0.932,31.028-1.397,39.228-1.397c65.597,0,98.395,26.09,98.395,78.269c0,17.145-5.281,32.582-15.84,46.309
	C822.824,263.688,810.276,272.229,795.741,275.584z M794.809,241.481c10.186-7.205,15.281-20.063,15.281-38.575
	c0-15.281-5.468-26.276-16.399-32.985c-10.933-6.708-28.203-10.063-51.806-10.063c-3.727,0-11.058,0.622-21.99,1.863v88.705
	c8.945,1.245,17.64,1.864,26.089,1.864C768.347,252.29,784.621,248.689,794.809,241.481z M1083.099,128.178h-41.557L940.166,276.702
	V128.178h-37.271v273.008h37.271v-73.982l36.339-51.62l76.964,125.603h41.184l-93.177-154.674L1083.099,128.178z M1129.128,401.187
	h37.271V128.178h-37.271V401.187z M1419.096,128.178h-214.867v33.543h86.842v239.465h37.271V161.722h90.755V128.178z
	 M1840.814,314.159c0,17.891-5.281,32.054-15.84,42.489c-10.562,10.436-25.035,15.653-43.421,15.653
	c-17.395,0-31.371-5.374-41.93-16.119c-10.562-10.745-15.84-24.442-15.84-41.092V128.178h-37.271v176.842
	c-0.088-1.086-0.578-2.471-1.464-4.021c-1.707-2.988-4.602-6.231-8.151-9.131c-6.903-5.639-13.485-7.774-15.882-6.513
	c-0.229,0.12-0.42,0.271-0.569,0.454c-0.553,0.677-0.567,1.831-0.091,3.287c4.008,1.616,8.389,4.29,12.535,7.677
	c4.269,3.486,7.685,7.229,9.981,10.722c1.542,0.186,2.697-0.048,3.244-0.716c0.229-0.281,0.354-0.659,0.396-1.104v12.212
	c0,28.326,8.259,50.069,24.785,65.224c16.521,15.158,40.065,22.735,70.628,22.735c29.689,0,53.141-7.733,70.349-23.201
	c17.208-15.467,25.81-36.991,25.81-64.571V128.178h-37.271V314.159z M1909.393,161.722h86.841v239.465h37.271V161.722h90.755
	v-33.543h-214.866V161.722z M2204.577,330c9.69-63.234,14.536-106.718,14.536-130.448v-76.219h-42.116v76.405
	c0,24.353,4.782,67.773,14.349,130.262H2204.577z M2218.927,357.021c-5.468-5.464-12.054-8.199-19.754-8.199
	c-7.704,0-14.289,2.735-19.753,8.199c-5.468,5.468-8.2,12.054-8.2,19.754c0,7.704,2.732,14.319,8.2,19.847
	c5.464,5.527,12.049,8.293,19.753,8.293c7.7,0,14.286-2.766,19.754-8.293c5.464-5.527,8.199-12.143,8.199-19.847
	C2227.126,369.074,2224.391,362.488,2218.927,357.021z M1682.105,330.641c-1.905,2.336-7.438,1.894-14.479-1.503
	c0.152,0.837,0.235,1.646,0.259,2.426c-1.382,3.04-6.004,5.659-10.29,7.49c-2.89-4.406-4.274-4.604-9.351-8.751
	c-3.222-2.632-6.561-4.909-9.821-6.723c-6.597-5.53-13.927-11.367-31.192-17.208c-5.992-2.028-33.548-14.161-39.06-17.028
	c-0.196-0.376-0.381-0.831-0.557-1.341c-4.868-5.731-9.483-12.892-13.298-19.779c-0.071,0.041-0.038,0.021-0.11,0.062
	c4.582,10.714,7.04,17.046,8.558,19.761c-12.895,19.604-2.301,25.569-8.821,48.882c-4.024-9.509-9.408-14.12-13.556-20.232
	c3.616,6.082,15.398,23.138,23.693,46.101c1.471-0.876,2.903-1.811,4.297-2.809c-0.003-0.009-0.006-0.017-0.009-0.024
	c1.448-1.037,2.854-2.143,4.222-3.308c0.123-0.106,0.248-0.211,0.372-0.318c0.578-0.501,1.148-1.016,1.712-1.539
	c0.265-0.247,0.525-0.499,0.786-0.751c0.464-0.446,0.928-0.895,1.382-1.357c0.718-0.735,1.428-1.481,2.12-2.258
	c1.944-2.174,3.786-4.511,5.522-7.016c6.675-9.624,11.682-21.188,15.021-34.693c2.69,1.105,4.86,1.958,6.122,2.385
	c5.793,1.959,10.388,3.902,14.162,5.809c-0.268,0.11-0.527,0.231-0.778,0.364c-1.017,0.533-1.89,1.239-2.594,2.101
	c-1.365,1.67-2.661,4.608-1.437,9.307c-1.437,2.304-2.116,6.149,1.207,12.202c0.222,0.405,0.496,0.771,0.812,1.093
	c0.139,1.336,0.572,2.896,1.46,4.696l-0.528,0.659c-1.431,1.79-1.461,4.323-0.073,6.147l2.854,3.753
	c-2.307,3.665-4.782,7.167-7.437,10.497c-6.094,7.645-12.985,14.13-20.664,19.474c-0.001,0.001-0.003,0.002-0.005,0.003
	c-3.795,2.642-7.784,5.002-11.967,7.081c-0.067,0.033-0.135,0.066-0.202,0.1c-2.716,1.342-5.513,2.566-8.392,3.673
	c-0.112,0.043-0.224,0.087-0.336,0.129c-1.425,0.542-2.867,1.058-4.332,1.541c-0.068,0.023-0.139,0.045-0.208,0.067
	c-1.438,0.472-2.896,0.917-4.372,1.334c-0.078,0.021-0.154,0.045-0.231,0.067c-1.466,0.41-2.952,0.79-4.455,1.146
	c-0.213,0.051-0.426,0.099-0.64,0.148c-2.988,0.689-6.052,1.272-9.188,1.748c-0.271,0.041-0.543,0.083-0.815,0.123
	c-1.526,0.222-3.069,0.422-4.631,0.593c-0.223,0.024-0.449,0.045-0.673,0.068c-1.445,0.151-2.906,0.282-4.381,0.391
	c-0.236,0.018-0.471,0.039-0.708,0.055c-1.577,0.109-3.174,0.19-4.785,0.25c-0.348,0.014-0.697,0.023-1.047,0.034
	c-1.649,0.051-3.312,0.085-4.996,0.085c0,0,0,0-0.001,0c-34.414,0-61.342-13.418-80.784-40.253c-0.968-1.336-1.905-2.696-2.825-4.07
	c-0.137-0.204-0.275-0.406-0.411-0.611c-0.87-1.315-1.717-2.649-2.543-3.999c-0.154-0.252-0.309-0.505-0.461-0.758
	c-0.821-1.361-1.624-2.737-2.401-4.133c-0.111-0.201-0.22-0.403-0.33-0.604c-0.806-1.463-1.593-2.94-2.35-4.44
	c-0.005-0.009-0.01-0.017-0.014-0.025c-11.886-23.566-17.829-51.765-17.829-84.599c0-39.507,9.906-72.551,29.724-99.14
	c11.946-16.027,26.413-27.216,43.394-33.582c0.023,12.206,7.522,22.508,13.501,30.719c0.077,0.106,0.155,0.213,0.232,0.32
	c-12.104,4.378-21.99,12.547-29.64,24.532c-11.407,17.873-17.404,41.873-18.016,71.982c-4.815,13.364-9.805,28.36-0.188,42.14
	c1.858,2.663,3.579,5.253,5.188,7.799c1.344,5.405,2.969,10.576,4.851,15.533c0.394,1.038,0.804,2.062,1.22,3.081
	c0.224,0.545,0.441,1.095,0.671,1.634c0.368,0.864,0.756,1.711,1.141,2.561c0.793,1.745,1.612,3.468,2.479,5.151
	c0.05,0.099,0.097,0.198,0.147,0.296c0.563,1.089,1.147,2.159,1.741,3.223c0.411,0.735,0.806,1.484,1.231,2.207
	c2.524,4.288,5.263,8.13,8.209,11.542c-3.57-7.597-5.39-14.827-3.871-20.539c0.162-0.608,0.332-1.197,0.502-1.785
	c-2.511-4.765-5.02-9.533-7.535-14.296c-3.527-6.678-7.56-13.086-11.873-19.268c-10.406-14.91-0.407-32.309,4.325-47.823
	c4.078-13.366,7.829-26.89,12.276-40.14l4.362,6.192c0.681-1.977-3.783-8.902-3.084-10.624
	c-2.688-10.727,10.677-23.492,21.506-18.527c7.846-3.094,13.725-4.316,18.106-6.199c9.947-7.662,6.723-17.676,6.82-17.895
	c0.411-0.929-9.097-22.213,2.377-33.39c0.013,0.001,1.672-2.717,1.685-2.717c-3.878,1.569-10.143,6.45-11.446,15.204
	c-0.932,6.261,5.181,16.696,5.591,21.738c0.102,10.535-7.479,14.842-7.036,13.393c4.175-13.666-33.046-33.176-15.862-61.078
	c6.348-10.309,13.748-10.766,16.319-11.367c10.217-2.387,21.497,5.27,20.021,8.793c-0.229,0.066-0.659,0.309-0.087,0.196
	c1.072-0.21,2.31,0.095,2.932,0.991c0.022,0.033,0.033,0.072,0.054,0.105c0.015-0.051,0.391-0.018,1.262-0.598
	c9.957-6.633,32.205-3.756,38.765,10.398c13.633,4.758,15.946,23.022,6.493,28.732c-0.779,0.471-2.502-3.321-2.513-2.41
	c-0.046,3.82-0.356,5.687-3.491,11.721c-0.3,0.521,0.092,3.025-1.938,3.823c0.049-0.038,0.104-0.085,0.164-0.135
	c-0.071,0.05-0.145,0.104-0.219,0.157c-0.023,0.01-0.044,0.021-0.069,0.029c-1.513,1.137-3.548,3.154-3.455,4.789
	c0.389,6.836-7.451,12.006-9.978,14.666c-0.088,0.093-2.976,4.664-4.599,5.375c-2.627,1.152-10.996-3.814-12.652-3.105
	c-0.191,0.082-2.419,5.189-0.687,4.854c11.298-2.191,17.461,0.371,20.821,4.074c3.023,3.332,5.1,9.59,2.918,15.656
	c-0.317,3.146,2.379,12.348,5.539,29.623c0.333,1.821,1.785,5.978,3.421,11.021v0.001c0.25,0.671,5.863,12.549,6.253,11.997
	c3.657,4.769,6.655,7.969,9.359,12.041c-3.294-6.67-4.365-9.477-4.365-9.477c15.426,6.826,32.316,26.326,50.316,39.077
	c1.28,0.906,2.548,1.744,3.804,2.507c-0.291-0.457-0.57-0.913-0.828-1.363c-2.502-4.38-3.09-7.928-1.615-9.732
	c0.276-0.338,0.626-0.618,1.045-0.838c1.816-0.957,4.92-0.803,8.814,0.479c5.188,1.707,11.137,5.174,16.752,9.761
	C1679.886,316.491,1685.024,327.067,1682.105,330.641z M1538.276,113.337c0.156,0.265,0.267,0.562,0.32,0.882
	C1539.155,113.319,1538.387,113.394,1538.276,113.337z M1488.855,309.058c5.616-7.585,10.84-10.409,11.023-10.536
	c23.524-11.242,17.077-36.468,17.077-36.468s3.076,25.257-18.928,33.335c0.714-1.236,8.241-9.942,8.605-11.323
	c3.682-13.94-7.161-20.89-10.36-30.94c-2.461-7.732-1.824-6.738-4.5-12.504c-2.446-6.672-5.126-13.258-8.037-19.74
	c0.984,6.444,3.759,12.931,5.537,19.191c3.055,10.763-3.365,23.558-7.158,33.984
	C1480.077,279.662,1482.948,279.314,1488.855,309.058z M1535.367,112.023c-0.027,0.066-0.05,0.133-0.087,0.196
	C1535.571,112.008,1535.507,111.982,1535.367,112.023z M1574.712,220.543c-1.42-0.212,0.135,11.314,1.176,15.451
	c1.028,4.083,2.958,10.59,3.986,14.673c2.017-1.853,10.092-6.434,6.246-16.673C1584.842,230.59,1574.712,220.543,1574.712,220.543z
	 M1671.548,298.419c-4.596-3.754-9.461-6.59-13.701-7.984c-3.148-1.037-5.645-1.17-7.085-0.411c-0.323,0.17-0.595,0.385-0.807,0.646
	c-0.624,0.764-0.766,1.941-0.453,3.414c0.644,0.161,1.308,0.353,1.993,0.578c5.429,1.787,11.62,5.387,17.432,10.134
	c5.67,4.632,10.103,9.629,12.865,14.179c0.711-0.179,1.283-0.483,1.657-0.943C1685.741,315.226,1681.417,306.48,1671.548,298.419z
	 M1624.576,347.051l-2.567,3.195l-0.171,0.214l5.619,7.389l8.358,3.98l0.157-0.195l2.582-3.214l-5.619-7.389L1624.576,347.051z
	 M1646.9,331.949c-5.614-4.588-11.563-8.055-16.752-9.762c-3.895-1.281-6.998-1.436-8.814-0.479c-0.419,0.22-0.769,0.5-1.045,0.838
	c-0.981,1.2-1.044,3.176-0.243,5.651c1.963-0.659,4.674-0.466,7.934,0.606c4.48,1.476,9.587,4.443,14.379,8.357
	c8.752,7.149,13.934,15.379,13.184,20.304c2.783,0.385,4.85-0.057,5.881-1.317c1.476-1.805,0.887-5.353-1.615-9.732
	C1657.1,341.674,1652.516,336.536,1646.9,331.949z M1641.015,338.809c-4.595-3.754-9.461-6.59-13.7-7.985
	c-3.149-1.037-5.646-1.17-7.086-0.411c-0.323,0.17-0.594,0.385-0.806,0.646c-1.12,1.37-0.696,4.066,1.148,7.427
	c0.053-0.074,0.089-0.158,0.146-0.229c1.444-1.766,4.352-2.044,8.188-0.781c3.511,1.155,7.508,3.478,11.253,6.538
	c5.784,4.724,10.681,11.135,10.427,15.453c1.045-0.119,1.853-0.46,2.332-1.046C1655.208,355.614,1650.884,346.869,1641.015,338.809z
	 M1638.814,345.658c-3.549-2.899-7.305-5.09-10.573-6.165c-2.362-0.778-4.274-0.885-5.331-0.329
	c-0.221,0.116-0.403,0.262-0.547,0.436c-0.823,1.009-0.424,3.169,1.067,5.781c0.158,0.277,0.337,0.558,0.515,0.839l0.71-0.883
	l9.344,4.449l6.282,8.261l-1.124,1.399c4.337,2.114,7.766,2.481,8.876,1.124C1649.744,358.476,1646.379,351.837,1638.814,345.658z
	 M412.166,351.592l-9.366,4.505l-6.277,8.319l2.913,3.597l0.176,0.219l9.107-4.38l0.259-0.125l0.142-0.188l6.135-8.132l-0.194-0.239
	L412.166,351.592z M398.917,349.159c4.192-3.451,8.669-6.075,12.604-7.388c2.17-0.724,4.076-1.005,5.642-0.853
	c1.594-3.294,1.866-5.912,0.72-7.303c-0.24-0.291-0.544-0.531-0.908-0.721c-1.621-0.846-4.422-0.686-7.953,0.491
	c-4.753,1.585-10.203,4.79-15.345,9.023c-11.044,9.093-15.861,18.928-13.277,22.067c1.083,1.315,3.579,1.574,6.922,0.767
	C387.927,360.471,393.005,354.026,398.917,349.159z M346.551,307.439c2.563-3.931,6.382-8.147,11.159-12.08
	c4.64-3.819,9.546-6.84,14.039-8.671c0.529-1.637,0.507-2.934-0.116-3.69c-0.168-0.204-0.383-0.373-0.641-0.507
	c-2.696-1.407-10.076,1.02-17.801,7.38c-3.973,3.271-7.208,6.923-9.111,10.285c-1.663,2.938-2.102,5.367-1.173,6.494
	C343.522,307.397,344.821,307.654,346.551,307.439z M418.258,343.643c-1.188-0.62-3.334-0.491-5.983,0.392
	c-3.664,1.222-7.871,3.696-11.843,6.967c-8.464,6.969-12.214,14.437-10.284,16.78c1.019,1.236,3.759,1.179,7.358-0.168l-2.923-3.608
	l7.017-9.301l10.471-5.035l3.421,4.225c0.854-1.104,1.605-2.202,2.209-3.27c1.663-2.939,2.102-5.366,1.173-6.495
	C418.713,343.935,418.507,343.772,418.258,343.643z M362.196,304.348c6.503-5.354,13.438-9.422,19.525-11.451
	c0.769-0.256,1.513-0.474,2.234-0.658c0.345-1.654,0.181-2.976-0.523-3.83c-0.239-0.291-0.544-0.532-0.908-0.722
	c-1.62-0.846-4.422-0.686-7.953,0.492c-4.753,1.585-10.203,4.789-15.345,9.022c-11.044,9.093-15.861,18.929-13.276,22.067
	c0.424,0.517,1.054,0.87,1.855,1.067C350.886,315.213,355.844,309.578,362.196,304.348z M392.161,340.568
	c5.362-4.414,11.083-7.769,16.106-9.443c3.654-1.219,6.697-1.447,8.903-0.717c0.889-2.782,0.81-4.999-0.297-6.343
	c-0.312-0.378-0.706-0.69-1.177-0.936c-2.043-1.066-5.527-0.88-9.893,0.575c-5.817,1.939-12.48,5.856-18.764,11.03
	s-11.407,10.962-14.427,16.297c-2.79,4.928-3.435,8.912-1.771,10.933c1.163,1.411,3.484,1.897,6.608,1.454
	C376.585,357.893,382.367,348.632,392.161,340.568z M1587.37,156.129c-0.354,0.214-0.731,0.385-1.123,0.51
	c-0.557,1.722-1.404,3.651-2.688,6.166c-0.441,3.167-1.862,5.363-4.232,6.542c-0.466,0.39-0.83,0.767-1.048,1.036
	c-0.005,1.595-0.294,3.085-0.764,4.483c17.993,17.045,27.003,46.196,27.003,87.487c0,2.575-0.048,5.094-0.121,7.583
	c5.632,4.197,11.351,9.241,17.253,14.447c4.599,4.056,9.303,8.205,14.058,12.016c0.375-1.091,0.901-1.921,1.393-2.523
	c0.705-0.861,1.578-1.568,2.595-2.102c0.741-0.391,1.562-0.678,2.444-0.877c1.006-9.032,1.513-18.545,1.513-28.544
	c0-43.729-10.093-77.832-30.282-102.308c-5.379-6.52-11.392-12.162-18.026-16.945
	C1594.662,148.673,1591.825,153.438,1587.37,156.129z M429.058,271.486c0.691-0.535,1.324-0.989,1.937-1.388
	c0.028-0.019,7.488-4.667,7.488-4.667c1.057-1.059,2.539-1.604,4.419-1.626c-1.469-6.808-1.22-14.944,0.77-22.56
	c1.933-7.396,5.23-13.536,9.512-17.885c2.969-14.861,7.825-27.583,14.574-38.158c2.167-3.395,4.52-6.473,7.044-9.258
	c-1.152-1.455-1.723-3.217-1.723-4.983c0-0.189,0-0.443,0-0.71c-1.164-1.307-1.834-2.711-2.113-4.103
	c-0.138-0.116-0.272-0.239-0.403-0.367c-1.287-1.266-1.858-2.834-2.275-3.979c-0.005-0.015-0.011-0.03-0.017-0.045
	c-1.966-0.284-3.591-1.098-4.845-2.431c-2.511-2.671-2.513-6.268-2.3-9.724l0.068-1.102c0.219-3.537,0.219-3.537,0.208-5.004
	c-0.003-0.423-0.007-0.966-0.008-1.692c-7.748,5.781-14.792,12.914-21.125,21.41c-19.816,26.589-29.723,59.633-29.723,99.14
	c0,8.621,0.417,16.916,1.236,24.897C417.81,281.353,424.141,275.297,429.058,271.486z M534.582,123.935
	c1.521,9.672,1.025,12.102-0.602,15.981c-0.296,0.705-0.601,1.433-0.913,2.401c-0.254,0.791-0.602,1.396-0.855,1.838
	c-0.225,0.393-0.355,0.62-0.131,1.594c1.207,1.773,5.54,7.59,10.006,13.492c6.919,1.635,13.205,4.124,18.856,7.467
	c2.031,1.029,3.836,2.201,5.332,3.555c0.263,0.196,0.525,0.393,0.784,0.593c0.208-0.013,0.418-0.023,0.638-0.023
	c4.42,0,9.056,2.75,13.778,8.171c0.305,0.35,0.598,0.715,0.879,1.093c0.127-0.01,0.254-0.015,0.382-0.015
	c0.782,0,1.568,0.183,2.292,0.557c7.541,3.892,10.738,10.483,12.456,14.024c0.107,0.221,0.232,0.478,0.349,0.713
	c9.473,6.47,17.96,18.449,21.084,25.171l0.135,0.293c0.083,0.18,0.156,0.364,0.218,0.552c0.879,2.677,1.616,5.48,2.215,8.442
	c1.075,0.478,1.975,1.331,2.499,2.45c0.426,0.911,0.906,1.908,1.476,3.049c0.201,0.403,0.424,0.837,0.659,1.296
	c2.726,5.323,7.147,13.958,2.938,20.111c-1.65,9.685-9.847,25.461-24.991,48.118l-0.502,0.751c-1.085,1.627-2.057,3.158-2.998,4.64
	c-2.312,3.64-4.495,7.077-7.675,10.949c-3.582,4.362-5.534,8.216-6.524,12.886c-2.749,12.956-8.33,17.661-15.934,19.287
	c-0.911,0.906-1.841,1.783-2.792,2.625c-0.006,0.068-0.017,0.138-0.023,0.206l-0.073-0.119c-2.179,1.918-4.47,3.657-6.862,5.234
	c0.62-1.07,1.191-2.135,1.684-3.182c1.55-11.303-0.128-22.829-0.637-34.388c-8.223-22.763,5.581-48.254,7.237-52.881l-16.612,19.987
	l-3.374,4.06l-0.742,0.893l-1.149,1.383c0.231-0.888,0.604-1.809,1.08-2.759c0.225-0.448,0.465-0.901,0.737-1.365
	c0.904-1.537,2.067-3.161,3.415-4.879c8.293-10.569,23.711-24.802,30.477-45.678c2.004,1.284,4.144,2.346,6.577,2.988
	c0.201,0.053,0.401,0.1,0.603,0.151c-1.412,0.434-2.599,1.281-3.437,2.731c-4.452,7.71-3.414,16.926-2.981,25.306
	c0.424,8.208-1.49,16.579-4.304,24.24c-2.856,7.778-7.907,17.842-14.768,23.912c0.787,11.658,2.719,16.119,0.778,27.195
	c8.326-0.594,13.473-3.092,16.209-15.987c1.199-5.651,3.641-10.259,7.552-15.021c4.26-5.187,6.674-9.636,10.376-15.188
	c4.129-6.193,23.519-34.779,24.894-48.162c3.957-3.957-0.992-12.466-3.311-17.107c-0.591-1.184-1.089-2.218-1.531-3.163
	c-0.457,2.653-0.911,5.295-1.318,7.937c-0.491-6.395-1.541-13.066-3.617-19.388c-0.047-0.101-0.089-0.194-0.137-0.298
	c-3.116-6.705-11.752-18.357-20.313-23.77c-1.444-2.071-3.604-9.812-11.335-13.803c0.672,2.121,1.247,4.277,1.685,6.479
	c0.947,4.768,0.995,10.357,0.487,16.039c-1.077-8.133-2.363-19.756-7.202-25.312c-8.432-9.682-12.658-5.602-12.658-5.602
	c-3.202-6.646-17.957-9.596-24.563-11.285c0,0-12.906-16.959-13.06-17.693c-1.282-4.539,0.465-5.624,0.882-6.922
	c1.909-5.931,3.48-4.076,0.663-20.086c-1.585-9.01-8.012-19.114-15.847-23.203c-9.233-4.82-17.034-3.849-27.003-0.719
	c-6.98,2.191-15.427,9.092-22.83,11.441c-2.122,0.673-2.331,2.112-1.201,4.029c1.31,2.223,3.093,4.73,3.093,4.73
	c-2.331,4.404-1.368,9.865-1.491,13.974c-0.157,5.249,2.704,6.085,2.704,10.476c0,4.275,0.101,2.347-0.278,8.481
	c-0.264,4.272,0,6.96,3.799,6.96c2.935,0,2.79,4.006,4.154,5.348c1.163,1.145,2.77,0.089,2.77,0.089s-2.313,2.13,0.034,4.687
	c-0.007,0.006,1.019,1.037,1.013,1.043c0.174-0.041,0.193,0.36,0.193,2.926c0,3.523,4.785,4.829,14.13,1.138
	c0.015-0.006,4.15,1.299,4.15,3.611c0,0,13.907-4.704,22.461,3.85c-3.75-2.375-16.094-7.395-26.533,0.021
	c-12.469,0-16.217,9.727-19.862,16.943c-3.238,6.412-9.848,19.842-5.596,32.91c-1.701-3.365-2.527-7.854-5.873-5.895
	c-12.226,7.153-16.893,29.243-12.23,42.579c1.878,1.627,3.573,2.986,5.127,4.196c-1.232-0.153-12.311-2.333-11.877-1.169
	l-8.254,5.143c-0.469,0.306-0.994,0.679-1.603,1.15c-8.562,6.636-21.975,20.737-29.976,28.137c-0.876,0.811,0.04,0.076-0.876,0.811
	c-4.018,1.698-7.636,3.039-10.794,4.157c0.464-0.703,0.909-1.402,1.299-2.091c2.79-4.927,3.435-8.912,1.771-10.932
	c-0.312-0.379-0.706-0.69-1.176-0.937c-2.043-1.066-5.527-0.88-9.893,0.575c-5.816,1.939-12.48,5.856-18.764,11.03
	c-13.768,11.336-19.491,23.231-16.199,27.229c2.149,2.614,9.237-0.312,17.126-4.154c-0.026,0.148-0.023,0.413-0.001,0.741
	c0.056-0.04,0.111-0.077,0.167-0.117c0.403,1.896,1.537,3.958,4.051,6.201c4.799,4.28,7.895,4.961,10.594,2.607
	c3.099-1.818,1.912-1.911,4.681-4.281c2.143-1.833,4.312-3.31,6.362-4.505c5.924-5.087,13.199-8.536,20.935-10.96
	c12.506-5.649,33.618-11.237,45.743-19.506c5.964-4.068,9.971-6.791,11.989-11.252c-0.039-0.549,0.261-0.891,0.45-0.508
	c5.516-4.624,8.96-12.163,15.255-21.2l-0.094-0.028c7.547-7.011,13.572-14.819,14.274-24.654c0.607-0.453,1.15-0.973,1.761-1.353
	c10.909-6.769,12.359-17.548,13.229-25.237c1.45,11.65-3.096,18.339-12.056,26.617c-3.511,3.243-0.084,2.769-2.392,9.652
	c-5.558,16.574-14.722,15.003-18.7,26.96c0,0-2.372,3.978,4.198,16.541c-1.11,7.823,4.884,16.952,4.884,25.353l6.889-6.176
	c-1.586,1.889-11.969,19.378-21.55,36.82c-1.141-1.39-2.26-2.824-3.334-4.351c-0.6-0.852-1.188-1.729-1.767-2.623
	c-0.102-0.157-0.203-0.315-0.304-0.474c-0.568-0.89-1.13-1.794-1.678-2.725c-0.653-1.108-1.28-2.237-1.898-3.375
	c-0.235-0.434-0.465-0.872-0.695-1.31c-0.368-0.699-0.728-1.404-1.083-2.114c-0.267-0.535-0.537-1.068-0.796-1.608
	c-0.404-0.839-0.794-1.688-1.18-2.54c-0.105-0.232-0.216-0.459-0.32-0.692l-0.001,0.002c-3.106-6.98-5.637-14.441-7.592-22.383
	c-7.825,4.243-17.394,7.718-26.039,10.855c-2.814,1.021-5.549,2.014-8.105,2.988c0.074,0.083,0.146,0.167,0.218,0.253
	c1.473,1.789,2.869,4.977,1.463,10.159c0.839,1.244,1.485,2.981,1.381,5.331c4.139,10.151,9.271,19.53,15.383,28.144l-0.003,0.005
	c0.252,0.356,0.5,0.716,0.756,1.069c0.581,0.803,1.17,1.592,1.765,2.369c0.27,0.354,0.546,0.698,0.82,1.047
	c0.32,0.409,0.639,0.822,0.964,1.225c0.365,0.453,0.736,0.896,1.106,1.341c0.232,0.278,0.463,0.561,0.697,0.836
	c0.434,0.511,0.873,1.011,1.313,1.51c0.169,0.192,0.338,0.387,0.508,0.576c0.492,0.55,0.989,1.089,1.489,1.624
	c0.118,0.126,0.235,0.253,0.353,0.378c0.543,0.574,1.091,1.14,1.644,1.698c0.073,0.073,0.146,0.147,0.22,0.222
	c0.589,0.592,1.185,1.174,1.785,1.746c0.033,0.032,0.067,0.063,0.1,0.096c0.631,0.601,1.268,1.191,1.911,1.771
	c0,0,0,0.001,0.001,0.001c3.499,3.153,7.172,5.994,11.021,8.521c0.203,0.133,0.407,0.264,0.611,0.395
	c0.792,0.512,1.592,1.009,2.399,1.494c0.192,0.115,0.383,0.232,0.576,0.346c1.974,1.165,3.99,2.252,6.051,3.261
	c0.219,0.107,0.441,0.211,0.661,0.316c0.823,0.395,1.652,0.777,2.489,1.146c0.249,0.11,0.498,0.222,0.748,0.33
	c0.989,0.426,1.985,0.839,2.993,1.23c0.051,0.021,0.102,0.042,0.154,0.062c1.081,0.418,2.174,0.814,3.276,1.193
	c0.231,0.079,0.465,0.154,0.697,0.231c0.862,0.289,1.731,0.566,2.607,0.832c0.304,0.092,0.608,0.184,0.914,0.272
	c0.911,0.267,1.83,0.52,2.755,0.76c0.205,0.054,0.407,0.111,0.612,0.163c1.131,0.286,2.273,0.554,3.426,0.803
	c0.226,0.049,0.456,0.092,0.683,0.139c0.924,0.193,1.854,0.374,2.791,0.543c0.35,0.062,0.701,0.123,1.053,0.183
	c0.885,0.149,1.777,0.288,2.674,0.417c0.306,0.044,0.61,0.092,0.918,0.133c1.187,0.16,2.382,0.304,3.59,0.427
	c0.175,0.019,0.353,0.03,0.528,0.048c1.034,0.1,2.075,0.187,3.125,0.26c0.383,0.027,0.768,0.05,1.153,0.073
	c0.896,0.054,1.797,0.099,2.704,0.133c0.373,0.015,0.744,0.03,1.118,0.042c1.251,0.036,2.51,0.061,3.781,0.061
	c1.472,0,2.925-0.026,4.37-0.064c0.401-0.011,0.8-0.025,1.199-0.039c1.155-0.039,2.301-0.092,3.439-0.156
	c0.31-0.018,0.623-0.031,0.932-0.051c1.415-0.089,2.817-0.197,4.205-0.324c0.257-0.024,0.51-0.053,0.767-0.078
	c1.167-0.114,2.325-0.242,3.473-0.384c0.332-0.041,0.665-0.082,0.995-0.125c2.765-0.362,5.475-0.805,8.128-1.328
	c0.252-0.05,0.503-0.103,0.754-0.154c1.18-0.24,2.349-0.496,3.506-0.77c0.162-0.038,0.326-0.073,0.487-0.112
	c1.351-0.325,2.687-0.67,4.007-1.039c0.041-0.012,0.082-0.024,0.124-0.036c1.255-0.352,2.494-0.728,3.721-1.12
	c0.168-0.054,0.337-0.107,0.506-0.162c2.577-0.837,5.094-1.762,7.548-2.777c0.084-0.034,0.167-0.07,0.25-0.104
	c1.208-0.503,2.402-1.026,3.58-1.572c0.028-0.014,0.056-0.026,0.084-0.039c2.45-1.138,4.833-2.371,7.155-3.696
	c0.062-0.035,0.124-0.07,0.185-0.105c2.324-1.333,4.583-2.758,6.778-4.278c0.004-0.003,0.009-0.006,0.014-0.009
	c7.741-5.365,14.685-11.888,20.819-19.584c20.249-25.407,30.376-60.531,30.376-105.384c0-43.729-10.095-77.832-30.283-102.308
	C590.006,138.699,565.66,126.663,534.582,123.935z"/>
</svg>
